<?xml version="1.0" standalone="no"?>
<!DOCTYPE svg PUBLIC "-//W3C//DTD SVG 20010904//EN"
 "http://www.w3.org/TR/2001/REC-SVG-20010904/DTD/svg10.dtd">
<svg version="1.0" xmlns="http://www.w3.org/2000/svg"
 width="512.000000pt" height="512.000000pt" viewBox="0 0 512.000000 512.000000"
 preserveAspectRatio="xMidYMid meet">

<g transform="translate(0.000000,512.000000) scale(0.100000,-0.100000)"
fill="#000000" stroke="none">
<path d="M1600 4483 c-87 -10 -186 -56 -251 -117 l-38 -37 27 -38 c15 -21 41
-71 57 -112 34 -89 63 -136 111 -185 53 -52 119 -92 193 -114 60 -19 94 -20
660 -19 496 1 588 3 551 13 -126 35 -234 125 -287 236 -17 36 -43 92 -59 125
-58 125 -196 224 -340 245 -64 9 -546 11 -624 3z"/>
</g>
</svg>
